<svg xmlns="http://www.w3.org/2000/svg" xmlns:xlink="http://www.w3.org/1999/xlink" width="2000" zoomAndPan="magnify" viewBox="0 0 1500 1499.999933" height="2000" preserveAspectRatio="xMidYMid meet" version="1.0"><defs><clipPath id="275e5b33c0"><path d="M 7.652344 0 L 1500 0 L 1500 1492.347656 L 7.652344 1492.347656 Z M 7.652344 0 " clip-rule="nonzero"/></clipPath><clipPath id="4ff691524b"><path d="M 753.824219 0 C 341.726562 0 7.652344 334.074219 7.652344 746.175781 C 7.652344 1158.273438 341.726562 1492.347656 753.824219 1492.347656 C 1165.925781 1492.347656 1500 1158.273438 1500 746.175781 C 1500 334.074219 1165.925781 0 753.824219 0 Z M 753.824219 0 " clip-rule="nonzero"/></clipPath><clipPath id="ee28aeed0e"><path d="M 0.652344 0 L 1493 0 L 1493 1492.347656 L 0.652344 1492.347656 Z M 0.652344 0 " clip-rule="nonzero"/></clipPath><clipPath id="5166445e4a"><path d="M 746.824219 0 C 334.726562 0 0.652344 334.074219 0.652344 746.175781 C 0.652344 1158.273438 334.726562 1492.347656 746.824219 1492.347656 C 1158.925781 1492.347656 1493 1158.273438 1493 746.175781 C 1493 334.074219 1158.925781 0 746.824219 0 Z M 746.824219 0 " clip-rule="nonzero"/></clipPath><clipPath id="f0bf6f4fc1"><rect x="0" width="1493" y="0" height="1493"/></clipPath><clipPath id="d421b0bf5d"><path d="M 372.542969 267.609375 L 1178.042969 267.609375 L 1178.042969 1286.859375 L 372.542969 1286.859375 Z M 372.542969 267.609375 " clip-rule="nonzero"/></clipPath></defs><g clip-path="url(#275e5b33c0)"><g clip-path="url(#4ff691524b)"><g transform="matrix(1, 0, 0, 1, 7, 0.000000000000112861)"><g clip-path="url(#f0bf6f4fc1)"><g clip-path="url(#ee28aeed0e)"><g clip-path="url(#5166445e4a)"><path fill="#a7f54a" d="M 0.652344 0 L 1493 0 L 1493 1492.347656 L 0.652344 1492.347656 Z M 0.652344 0 " fill-opacity="1" fill-rule="nonzero"/></g></g></g></g></g></g><g clip-path="url(#d421b0bf5d)"><path fill="#000000" d="M 566.453125 267.621094 L 372.601562 952.90625 L 574.625 953.777344 L 503.390625 1286.683594 L 824.363281 805.902344 L 605.003906 806.367188 L 700.460938 495.273438 L 936.980469 494.4375 C 937.894531 494.4375 938.808594 494.480469 939.71875 494.570312 C 940.628906 494.660156 941.53125 494.796875 942.425781 494.972656 C 943.324219 495.152344 944.210938 495.375 945.085938 495.640625 C 945.960938 495.90625 946.820312 496.214844 947.664062 496.5625 C 948.511719 496.914062 949.335938 497.304688 950.140625 497.734375 C 950.949219 498.164062 951.730469 498.636719 952.492188 499.144531 C 953.253906 499.652344 953.988281 500.195312 954.695312 500.773438 C 955.402344 501.355469 956.078125 501.96875 956.722656 502.617188 C 957.371094 503.261719 957.984375 503.9375 958.5625 504.644531 C 959.144531 505.351562 959.6875 506.085938 960.195312 506.847656 C 960.703125 507.605469 961.171875 508.390625 961.605469 509.195312 C 962.035156 510.003906 962.425781 510.828125 962.777344 511.671875 C 963.125 512.519531 963.433594 513.378906 963.699219 514.253906 C 963.964844 515.128906 964.1875 516.015625 964.363281 516.910156 C 964.542969 517.808594 964.675781 518.710938 964.765625 519.621094 C 964.855469 520.53125 964.902344 521.445312 964.902344 522.359375 C 964.902344 523.277344 964.855469 524.195312 964.765625 525.109375 C 964.675781 526.023438 964.539062 526.933594 964.359375 527.832031 C 964.175781 528.734375 963.953125 529.625 963.683594 530.503906 C 963.414062 531.382812 963.105469 532.246094 962.75 533.09375 C 962.398438 533.945312 962 534.773438 961.566406 535.582031 C 961.128906 536.390625 960.65625 537.175781 960.140625 537.941406 C 959.628906 538.703125 959.078125 539.4375 958.492188 540.144531 C 957.90625 540.855469 957.289062 541.53125 956.636719 542.179688 C 955.984375 542.824219 955.300781 543.4375 954.585938 544.019531 C 953.871094 544.597656 953.132812 545.140625 952.367188 545.648438 C 951.597656 546.15625 950.808594 546.621094 949.996094 547.050781 C 949.179688 547.480469 948.347656 547.867188 947.496094 548.210938 C 946.644531 548.558594 945.78125 548.863281 944.898438 549.121094 C 944.015625 549.382812 943.125 549.601562 942.222656 549.773438 C 941.320312 549.945312 940.410156 550.074219 939.492188 550.15625 C 938.578125 550.238281 937.660156 550.277344 936.742188 550.269531 L 744.753906 550.386719 L 682.195312 753.328125 L 935.15625 753.328125 C 1069.988281 753.328125 1179.09375 643.398438 1177.996094 508.503906 C 1176.839844 375.152344 1068.425781 267.621094 935.070312 267.621094 Z M 566.453125 267.621094 " fill-opacity="1" fill-rule="nonzero"/></g></svg>