<svg xmlns="http://www.w3.org/2000/svg" width="20" height="20" viewBox="0 0 20 20">
  <path
    fill="currentColor"
    d="M12.625 6.25h4.063L12 1.563V5.625c0 .345.28.625.625.625m0 1.25A1.875 1.875 0 0 1 10.75 5.625V1.25H6.875A1.875 1.875 0 0 0 5 3.125v8.239c.26.093.5.235.701.435q.141.142.245.305l.059-.059q.07-.072.148-.136A3.05 3.05 0 0 1 8.026 11.25h.19c.8 0 1.58.324 2.145.89c.565.565.889 1.346.889 2.146c0 .429-.13.823-.4 1.178q.062.106.114.219c.288.615.361 1.32.205 1.981a2.5 2.5 0 0 1-.513 1.086H15.625A1.875 1.875 0 0 0 17.5 16.875V7.5zM8.216 18.75h-.183a1.789 1.789 0 0 1-1.783-1.783a.667.667 0 0 1 .625-.671a.59.59 0 0 1 .438.156a.59.59 0 0 1 .187.423a.562.562 0 0 0 .534.625h.182a.536.536 0 0 0 .24-1.01l-1.219-.61a1.78 1.78 0 0 1-.93-2a1.788 1.788 0 0 1 1.727-1.38h.182A1.788 1.788 0 0 1 10 14.284a.667.667 0 0 1-.625.671a.59.59 0 0 1-.438-.156a.59.59 0 0 1-.187-.424v-.091A.537.537 0 0 0 8.216 13.75h-.183a.535.535 0 0 0-.24 1.01l1.22.61a1.783 1.783 0 0 1-.797 3.38m-6.417-.549a1.88 1.88 0 0 0 2.652 0c.351-.352.549-.83.549-1.326v-3.75a.625.625 0 1 0-1.25 0v3.75a.625.625 0 1 1-1.25 0v-.625a.625.625 0 1 0-1.25 0v.625c0 .497.197.974.549 1.326"
  />
</svg>
