<svg width="24" height="24" viewBox="0 0 24 24" fill="none" xmlns="http://www.w3.org/2000/svg">
<g fill="currentColor" opacity="0.5">
<path fill-rule="evenodd" clip-rule="evenodd" d="M12.75 22C17.922 21.616 22 17.292 22 12.014V12C22 6.477 17.523 2 12 2S2 6.477 2 12V12.014C2 17.292 6.078 21.616 11.25 22V21.972A10 10 0 0 1 2 12.007C2.004 6.48 6.48 2 12 2C17.52 2 21.996 6.48 22 12.007C21.996 17.274 17.92 21.589 12.75 21.972V22Z"/>
<path d="M11.25 21.972A10 10 0 0 0 12.75 21.972C17.92 21.589 21.996 17.274 22 12.007C21.996 6.48 17.52 2 12 2C6.48 2 2.004 6.48 2 12.007C2.004 17.274 6.08 21.589 11.25 21.972Z"/>
</g>
<path fill="currentColor" d="M8.5 12.515A3.505 3.505 0 0 0 11.25 15.939V21.972A10 10 0 0 0 12.75 21.972V15.94A3.505 3.505 0 0 0 15.5 12.515V12.014A1 1 0 0 0 14.5 11.013H14.25V9.01A0.75 0.75 0 1 0 12.75 9.01V11.013H11.25V9.01A0.75 0.75 0 1 0 9.75 9.01V11.013H9.5A1 1 0 0 0 8.5 12.014V12.515Z"/>
</svg>
