<svg width="24" height="24" viewBox="0 0 24 24" fill="none" xmlns="http://www.w3.org/2000/svg">
<path fill="currentColor" fill-rule="evenodd" clip-rule="evenodd" d="M9.965 2.809A1.51 1.51 0 0 0 8.564 2.606A10 10 0 0 0 5.582 4.331A1.51 1.51 0 0 0 5.058 5.644C5.133 6.397 5 7.124 4.638 7.75C4.277 8.377 3.713 8.856 3.023 9.167C2.565 9.37 2.237 9.787 2.148 10.28A10 10 0 0 0 2.148 13.72C2.241 14.257 2.608 14.646 3.023 14.834C3.713 15.144 4.277 15.624 4.639 16.25C5 16.877 5.133 17.603 5.058 18.356C5.013 18.808 5.165 19.32 5.582 19.669A10 10 0 0 0 8.564 21.394C9.035 21.563 9.56 21.487 9.964 21.191C10.579 20.749 11.276 20.5 12 20.5C12.724 20.5 13.42 20.749 14.035 21.191C14.405 21.457 14.925 21.581 15.436 21.394A10 10 0 0 0 18.418 19.669C18.835 19.32 18.988 18.809 18.942 18.356C18.867 17.603 18.999 16.877 19.362 16.25C19.723 15.623 20.287 15.145 20.977 14.834C21.391 14.646 21.759 14.257 21.852 13.72A10.1 10.1 0 0 0 21.852 10.28A1.51 1.51 0 0 0 20.977 9.167C20.287 8.856 19.723 8.377 19.361 7.75C18.999 7.124 18.867 6.397 18.942 5.644A1.51 1.51 0 0 0 18.418 4.331A10 10 0 0 0 15.436 2.606A1.51 1.51 0 0 0 14.036 2.809C13.42 3.25 12.723 3.5 12 3.5C11.277 3.5 10.58 3.251 9.965 2.809Z" opacity="0.3"/>
<path fill="currentColor" fill-rule="evenodd" clip-rule="evenodd" d="M9 12C9 9.691 11.5 8.247 13.5 9.402A3 3 0 0 1 15 12C15 14.309 12.5 15.753 10.5 14.598A3 3 0 0 1 9 12Z"/>
</svg>
